    <svg xmlns="http://www.w3.org/2000/svg" xml:space="preserve" width="100%" heigh="100%" data-id="lg_mCIkEJ3IOsGVfjyJ22" data-version="1" viewBox="700 0 600 130"><g data-padding="20"><g transform="translate(10 2.321)scale(.96429)"><rect width="384.842" height="123.17" x="435.562" y="-399.715" fill="none" rx="0" ry="0" transform="translate(488.08 400.4)"/><path fill="#303030" d="M939.493 96.02h-9.59v-76.3h9.59v33.13h3.92l22.89-33.13h9.92v1.74l-25.07 35.97 25.07 36.84v1.75h-9.92l-22.89-34.01h-3.92Zm40.1 0v-76.3h9.59V87.3h25.84v8.72Zm49.39 0h-9.59v-76.3h24.3q6.98 0 12.32 2.56t8.5 8.01 3.16 13.95-3.21 14.17q-3.22 5.67-8.61 8.56-5.4 2.89-12.16 2.89h-14.71Zm0-67.58v32.91h13.84q4.25 0 7.63-1.79 3.38-1.8 5.4-5.51 2.01-3.7 2.01-9.15 0-5.35-2.01-9.05-2.02-3.71-5.4-5.56t-7.63-1.85Zm102.99 56.23-18.09-21.8q-4.36 3.16-6.87 5.5-2.5 2.35-3.43 4.53t-.93 4.69q0 4.9 3.82 8.22 3.81 3.33 10.35 3.33 4.58 0 8.61-2.13 4.04-2.12 7.09-6.32 3.05-4.19 4.85-10.24t1.8-14.01v-8.72h8.94v4.9q0 5.78-.77 11.99-.76 6.22-2.78 12.05-2.01 5.83-5.72 10.46-3.7 4.64-9.48 7.36-5.78 2.73-14.06 2.73-6.76 0-11.88-2.4-5.13-2.4-7.91-6.71-2.78-4.3-2.78-9.86 0-4.91 1.8-8.28 1.8-3.38 4.69-5.95 2.89-2.56 6.27-4.85.32-.21 1.03-.65t1.42-.98q.71-.55.93-.65-3.49-4.26-5.84-7.53-2.34-3.27-3.48-6.32-1.15-3.05-1.15-6.65 0-5.56 2.67-9.59t7.25-6.21 10.46-2.18q6 0 10.41 2.12 4.42 2.13 6.82 5.78t2.4 8.34q0 5.99-2.19 9.86-2.18 3.87-6.04 6.98-3.87 3.11-9.11 6.49l16.14 19.18q2.94 3.49 5.17 5.61 2.24 2.13 4.15 3.11 1.9.98 3.76.98l.87.55v8.61q-2.94 0-5.23-.49t-4.36-1.75q-2.07-1.25-4.36-3.49-2.29-2.23-5.24-5.61m-15.8-32.48q3.71-2.29 6.59-4.42 2.89-2.12 4.53-4.96 1.63-2.83 1.63-7.08 0-3.71-2.67-6.32-2.67-2.62-7.25-2.62-4.68 0-7.9 2.45-3.21 2.46-3.21 7.14 0 3.16 1.85 6.71 1.85 3.54 6.43 9.1m61.7 5.68q0-10.03 2.73-17.44 2.72-7.42 7.36-12.27 4.63-4.85 10.51-7.24 5.89-2.4 12.21-2.4 6.11 0 10.08 1.31 3.98 1.3 5.73 3.05v9.37h-1.75q-1.85-2.18-5.23-3.43-3.38-1.26-8.39-1.26-6.76 0-12.05 3.49-5.28 3.49-8.28 10.25t-3 16.57 3 16.56q3 6.76 8.23 10.25t11.99 3.49q5.01 0 8.45-1.26 3.43-1.25 5.28-3.43h1.75v9.38q-1.75 1.63-5.73 2.99-3.97 1.37-10.3 1.37-6.43 0-12.31-2.4-5.89-2.4-10.47-7.25-4.57-4.85-7.19-12.26-2.62-7.42-2.62-17.44m51.12-.01q0-13.96 4.47-22.62 4.47-8.67 11.72-12.75 7.25-4.09 15.75-4.09t15.75 4.09q7.25 4.08 11.72 12.75 4.47 8.66 4.47 22.62 0 13.84-4.47 22.56t-11.72 12.81q-7.25 4.08-15.75 4.08t-15.75-4.08q-7.25-4.09-11.72-12.81t-4.47-22.56m9.92 0q0 10.13 2.89 16.89t7.9 10.08q5.02 3.33 11.23 3.33 6.1 0 11.12-3.33 5.01-3.32 8.01-10.08t3-16.89q0-10.25-3.05-16.95-3.06-6.71-8.07-10.03-5.01-3.33-11.01-3.33-6.21 0-11.23 3.38-5.01 3.38-7.9 10.09-2.89 6.7-2.89 16.84m69.33 33.13q0 2.73-1.8 4.53-1.8 1.79-4.53 1.79-2.72 0-4.52-1.79-1.8-1.8-1.8-4.53 0-2.4 1.8-4.3 1.8-1.91 4.52-1.91 2.73 0 4.53 1.91 1.8 1.9 1.8 4.3"/><path fill="#ec0000" d="M790.523 44.734a42.536 42.536 0 1 0 0 85.072 42.536 42.536 0 1 0 0-85.072"/><path fill="#07c100" d="M853.123 44.734a42.536 42.536 0 1 0 0 85.072 42.536 42.536 0 1 0 0-85.072"/><path fill="#286cff" d="M815.313.194a42.536 42.536 0 1 0 0 85.072 42.536 42.536 0 1 0 0-85.072"/></g><path fill="transparent" stroke="transparent" d="M721.513 0h560v130h-560z"/></g></svg>